{
  "accessors": [
    {
      "bufferView": 2,
      "componentType": 5126,
      "count": 19679,
      "max": [
        0.5673900246620178,
        0.04917370155453682,
        0.22492100298404694
      ],
      "min": [
        -0.5673900246620178,
        -0.8573030233383179,
        -0.2250870019197464
      ],
      "type": "VEC3"
    },
    {
      "bufferView": 2,
      "byteOffset": 236148,
      "componentType": 5126,
      "count": 19679,
      "max": [
        0.9999992847442627,
        0.9999990463256836,
        0.9999982118606567
      ],
      "min": [
        -0.9999992847442627,
        -0.9999971389770508,
        -0.9999122619628906
      ],
      "type": "VEC3"
    },
    {
      "bufferView": 3,
      "componentType": 5126,
      "count": 19679,
      "max": [
        1.0,
        0.9990630149841309,
        1.0,
        1.0
      ],
      "min": [
        -1.0,
        -0.9996389746665955,
        -0.9999979734420776,
        -1.0
      ],
      "type": "VEC4"
    },
    {
      "bufferView": 1,
      "componentType": 5126,
      "count": 19679,
      "max": [
        0.9850999712944031,
        0.9857000112533569
      ],
      "min": [
        0.014800000004470348,
        0.01080000028014183
      ],
      "type": "VEC2"
    },
    {
      "bufferView": 0,
      "componentType": 5125,
      "count": 113136,
      "type": "SCALAR"
    },
    {
      "bufferView": 2,
      "byteOffset": 472296,
      "componentType": 5126,
      "count": 21489,
      "max": [
        0.5182440280914307,
        1.0,
        0.47189900279045105
      ],
      "min": [
        -0.5182440280914307,
        -0.0364748015999794,
        -0.4500640034675598
      ],
      "type": "VEC3"
    },
    {
      "bufferView": 2,
      "byteOffset": 730164,
      "componentType": 5126,
      "count": 21489,
      "max": [
        1.0,
        1.0,
        1.0
      ],
      "min": [
        -1.0,
        -1.0,
        -1.0
      ],
      "type": "VEC3"
    },
    {
      "bufferView": 3,
      "byteOffset": 314864,
      "componentType": 5126,
      "count": 21489,
      "max": [
        1.0,
        1.0,
        1.0,
        1.0
      ],
      "min": [
        -1.0,
        -1.0,
        -1.0,
        -1.0
      ],
      "type": "VEC4"
    },
    {
      "bufferView": 1,
      "byteOffset": 157432,
      "componentType": 5126,
      "count": 21489,
      "max": [
        1.0,
        0.9965000152587891
      ],
      "min": [
        0.0,
        0.00989999994635582
      ],
      "type": "VEC2"
    },
    {
      "bufferView": 0,
      "byteOffset": 452544,
      "componentType": 5125,
      "count": 121110,
      "type": "SCALAR"
    },
    {
      "bufferView": 2,
      "byteOffset": 988032,
      "componentType": 5126,
      "count": 744,
      "max": [
        0.5720070004463196,
        -0.856652021408081,
        0.6601089835166931
      ],
      "min": [
        -0.5720070004463196,
        -1.0,
        -0.6601089835166931
      ],
      "type": "VEC3"
    },
    {
      "bufferView": 2,
      "byteOffset": 996960,
      "componentType": 5126,
      "count": 744,
      "max": [
        1.0,
        1.0,
        0.999983549118042
      ],
      "min": [
        -1.0,
        -1.0,
        -0.9999833106994629
      ],
      "type": "VEC3"
    },
    {
      "bufferView": 3,
      "byteOffset": 658688,
      "componentType": 5126,
      "count": 744,
      "max": [
        1.0,
        0.8846510052680969,
        1.0,
        1.0
      ],
      "min": [
        -0.9999960064888,
        -0.9526429772377014,
        -1.0,
        -1.0
      ],
      "type": "VEC4"
    },
    {
      "bufferView": 1,
      "byteOffset": 329344,
      "componentType": 5126,
      "count": 744,
      "max": [
        0.9710000157356262,
        0.9745000004768372
      ],
      "min": [
        0.029100000858306885,
        0.011099999770522118
      ],
      "type": "VEC2"
    },
    {
      "bufferView": 0,
      "byteOffset": 936984,
      "componentType": 5125,
      "count": 3000,
      "type": "SCALAR"
    }
  ],
  "asset": {
    "extras": {
      "author": "Bohdan Lvov (https://sketchfab.com/ostapblendercg)",
      "license": "CC-BY-4.0 (http://creativecommons.org/licenses/by/4.0/)",
      "source": "https://sketchfab.com/3d-models/emojimat-1e259a10272f4012bee459d85b5ec25e",
      "title": "EmojiMat"
    },
    "generator": "Sketchfab-12.67.0",
    "version": "2.0"
  },
  "bufferViews": [
    {
      "buffer": 0,
      "byteLength": 948984,
      "name": "floatBufferViews",
      "target": 34963
    },
    {
      "buffer": 0,
      "byteLength": 335296,
      "byteOffset": 948984,
      "byteStride": 8,
      "name": "floatBufferViews",
      "target": 34962
    },
    {
      "buffer": 0,
      "byteLength": 1005888,
      "byteOffset": 1284280,
      "byteStride": 12,
      "name": "floatBufferViews",
      "target": 34962
    },
    {
      "buffer": 0,
      "byteLength": 670592,
      "byteOffset": 2290168,
      "byteStride": 16,
      "name": "floatBufferViews",
      "target": 34962
    }
  ],
  "buffers": [
    {
      "byteLength": 2960760,
      "uri": "scene.bin"
    }
  ],
  "images": [
    {
      "uri": "textures/03_Base_baseColor.jpeg"
    },
    {
      "uri": "textures/03_Base_metallicRoughness.png"
    },
    {
      "uri": "textures/03_Base_emissive.jpeg"
    },
    {
      "uri": "textures/03_Base_normal.jpeg"
    },
    {
      "uri": "textures/01_Head_baseColor.jpeg"
    },
    {
      "uri": "textures/01_Head_metallicRoughness.png"
    },
    {
      "uri": "textures/01_Head_emissive.jpeg"
    },
    {
      "uri": "textures/01_Head_normal.jpeg"
    },
    {
      "uri": "textures/02_Body_baseColor.jpeg"
    },
    {
      "uri": "textures/02_Body_metallicRoughness.png"
    },
    {
      "uri": "textures/02_Body_emissive.jpeg"
    },
    {
      "uri": "textures/02_Body_normal.jpeg"
    }
  ],
  "materials": [
    {
      "doubleSided": true,
      "emissiveFactor": [
        1.0,
        1.0,
        1.0
      ],
      "emissiveTexture": {
        "index": 2
      },
      "name": "03_Base",
      "normalTexture": {
        "index": 3
      },
      "occlusionTexture": {
        "index": 1
      },
      "pbrMetallicRoughness": {
        "baseColorTexture": {
          "index": 0
        },
        "metallicRoughnessTexture": {
          "index": 1
        }
      }
    },
    {
      "doubleSided": true,
      "emissiveFactor": [
        1.0,
        1.0,
        1.0
      ],
      "emissiveTexture": {
        "index": 6
      },
      "name": "01_Head",
      "normalTexture": {
        "index": 7
      },
      "occlusionTexture": {
        "index": 5
      },
      "pbrMetallicRoughness": {
        "baseColorTexture": {
          "index": 4
        },
        "metallicRoughnessTexture": {
          "index": 5
        }
      }
    },
    {
      "doubleSided": true,
      "emissiveFactor": [
        1.0,
        1.0,
        1.0
      ],
      "emissiveTexture": {
        "index": 10
      },
      "name": "02_Body",
      "normalTexture": {
        "index": 11
      },
      "occlusionTexture": {
        "index": 9
      },
      "pbrMetallicRoughness": {
        "baseColorTexture": {
          "index": 8
        },
        "metallicRoughnessTexture": {
          "index": 9
        }
      }
    }
  ],
  "meshes": [
    {
      "name": "defaultMaterial",
      "primitives": [
        {
          "attributes": {
            "NORMAL": 1,
            "POSITION": 0,
            "TANGENT": 2,
            "TEXCOORD_0": 3
          },
          "indices": 4,
          "material": 2,
          "mode": 4
        }
      ]
    },
    {
      "name": "defaultMaterial",
      "primitives": [
        {
          "attributes": {
            "NORMAL": 6,
            "POSITION": 5,
            "TANGENT": 7,
            "TEXCOORD_0": 8
          },
          "indices": 9,
          "material": 1,
          "mode": 4
        }
      ]
    },
    {
      "name": "defaultMaterial",
      "primitives": [
        {
          "attributes": {
            "NORMAL": 11,
            "POSITION": 10,
            "TANGENT": 12,
            "TEXCOORD_0": 13
          },
          "indices": 14,
          "material": 0,
          "mode": 4
        }
      ]
    }
  ],
  "nodes": [
    {
      "children": [
        1
      ],
      "matrix": [
        753.150146484375,
        0.0,
        0.0,
        0.0,
        0.0,
        1.672329267253525e-13,
        -753.150146484375,
        0.0,
        0.0,
        753.150146484375,
        1.672329267253525e-13,
        0.0,
        0.0,
        0.0,
        0.0,
        1.0
      ],
      "name": "Sketchfab_model"
    },
    {
      "children": [
        2,
        4,
        6
      ],
      "matrix": [
        1.0,
        0.0,
        0.0,
        0.0,
        0.0,
        -4.371139006309477e-08,
        0.999999999999999,
        0.0,
        0.0,
        -0.999999999999999,
        -4.371139006309477e-08,
        0.0,
        0.0,
        0.0,
        0.0,
        1.0
      ],
      "name": "Collada visual scene group"
    },
    {
      "children": [
        3
      ],
      "name": "g"
    },
    {
      "mesh": 0,
      "name": "defaultMaterial"
    },
    {
      "children": [
        5
      ],
      "name": "g"
    },
    {
      "mesh": 1,
      "name": "defaultMaterial"
    },
    {
      "children": [
        7
      ],
      "name": "g"
    },
    {
      "mesh": 2,
      "name": "defaultMaterial"
    }
  ],
  "samplers": [
    {
      "magFilter": 9729,
      "minFilter": 9987,
      "wrapS": 10497,
      "wrapT": 10497
    }
  ],
  "scene": 0,
  "scenes": [
    {
      "name": "Sketchfab_Scene",
      "nodes": [
        0
      ]
    }
  ],
  "textures": [
    {
      "sampler": 0,
      "source": 0
    },
    {
      "sampler": 0,
      "source": 1
    },
    {
      "sampler": 0,
      "source": 2
    },
    {
      "sampler": 0,
      "source": 3
    },
    {
      "sampler": 0,
      "source": 4
    },
    {
      "sampler": 0,
      "source": 5
    },
    {
      "sampler": 0,
      "source": 6
    },
    {
      "sampler": 0,
      "source": 7
    },
    {
      "sampler": 0,
      "source": 8
    },
    {
      "sampler": 0,
      "source": 9
    },
    {
      "sampler": 0,
      "source": 10
    },
    {
      "sampler": 0,
      "source": 11
    }
  ]
}
