<svg xmlns="http://www.w3.org/2000/svg" viewBox="0 0 1920 1685.38"><defs><style>.cls-1{fill:#131519;}.cls-2{fill:#fff;}</style></defs><title>ShifuFX-1920px</title><g id="Layer_2" data-name="Layer 2"><g id="Layer_4" data-name="Layer 4"><rect class="cls-1" width="1920" height="1685.38"/><path class="cls-2" d="M233.45,1114.4Q170.7,1099.09,129.94,1074L201.3,937.58q88.6,51,185.07,51,35.29,0,54.1-8.62t18.82-23.52q0-14.11-19.22-22.76t-60.76-18.82q-54.9-14.11-91-28.63T225.22,841.5q-27.06-30.15-27.05-79.58,0-62,33.33-108.6t96-72.16q62.73-25.48,148.21-25.48,61.18,0,114.1,12.16t91.36,34.89L614.56,737.6a250.85,250.85,0,0,0-71-30.58,312.75,312.75,0,0,0-79.6-10.2q-38.42,0-59.59,11t-21.19,25.88q0,14.89,19.22,23.52T465.57,776q53.32,12.56,89.79,26.67a162.41,162.41,0,0,1,63.13,43.9q26.65,29.83,26.65,78.42,0,61.18-33.71,107.44T515,1104.2q-62.73,25.48-147.42,25.51Q296.18,1129.7,233.45,1114.4Z"/><path class="cls-2" d="M900,707.81,881.2,801.9h229l-28.23,139.58H853.76l-35.3,175.66H633.4L743.18,568.23h446.2l-28.23,139.58Z"/><path class="cls-2" d="M1539.91,844.25l147.43,272.9h-200L1419.14,976,1300,1117.15H1078.8l258.79-283.87-138.8-265.05H1396.4l67.44,137.23,117.63-137.23h208.59Z"/></g></g></svg>