<svg xmlns="http://www.w3.org/2000/svg" xmlns:xlink="http://www.w3.org/1999/xlink" viewBox="-100 -20 450 250"><defs><style>.cls-1{fill:url(#linear-gradient);}</style><linearGradient id="linear-gradient" y1="109.04" x2="180.03" y2="109.04" gradientUnits="userSpaceOnUse"><stop offset="0" stop-color="#4c9bd8"/><stop offset="0.52" stop-color="#9134ea"/><stop offset="1" stop-color="#d4474f"/></linearGradient></defs><title>Burung_1</title><g id="Layer_2" data-name="Layer 2"><g id="Layer_1-2" data-name="Layer 1"><path class="cls-1" d="M130,19.14s-7.53-1.46-12.24-.21-12.95,9-12.95,9,9.89,2.3,12.48,2.3S130,19.14,130,19.14ZM111.05,113c-4.25-24.5,11.11-51,20.67-64.67a9,9,0,0,0,3.15.72,9.29,9.29,0,0,0,9.51-8.45,3.8,3.8,0,0,0,0-1.48,9.19,9.19,0,0,0-18.36.74,9.13,9.13,0,0,0,2.22,5.92c-10,14.1-26,41.62-21.38,68,6.36,36.64,22.17,48.23,22.84,48.7l2.47-3.46C132,158.88,117.07,147.73,111.05,113ZM180,93.13a9.19,9.19,0,0,0-18.36.74s0,.06,0,.09c-13.85,2.95-30,4.65-34.18.09-.44-.48-1.77-2-.15-6.06,3.47-8.79,10.56-14.84,18.06-21.24,10.76-9.18,21.88-18.68,22.27-36.85.21-10-4.45-18-13.47-23.31C140-1.67,118.23-1.3,111,3c-8.79,5.2-16.85,15.26-18.52,17.42L0,67.5l1.61,3.92L65.89,50.8,8.78,80.31l1.68,3.89L81.63,59,91.08,61a8.92,8.92,0,0,0-.49,2.89,9.24,9.24,0,0,0,3.64,7.28c-10,15.67-20.09,34.17-19.42,44.6,1.29,20,1.92,21.09,2.15,21.51l3.72,0,2.21-4.07c-1.94,6.15-3.27,11.7-3.06,14.88.69,10.42,5,12.22,5.91,12.48l2.62-1.36,4.45-13.26c.09,9.19.68,21.15,2.77,29.79S105,195.8,111.2,204.44a9,9,0,0,0-1.18,4.43,9.31,9.31,0,0,0,8.85,9.2,8.88,8.88,0,0,0,5-1.28l.85-.14L125,216a9.91,9.91,0,0,0,3.37-6.37,3.8,3.8,0,0,0,0-1.48c0-.1,0-.2,0-.29l43-104.78a9.33,9.33,0,0,0,8.64-8.44,3.8,3.8,0,0,0,0-1.48Zm-86.37-36-4.19-.86,19.92-7c-1.38,1.87-3,4.15-4.84,6.72a8.86,8.86,0,0,0-4.67-1.31A9.16,9.16,0,0,0,93.58,57.15ZM104,63.87c-.29,5.41-8.43,5.45-8.43,0S103.73,58.46,104,63.87ZM125.9,202.61a8.85,8.85,0,0,0-6.66-3,9.07,9.07,0,0,0-5.09,1.58c-5.91-8.24-12.54-18.72-14.43-26.54-3.65-15.11-2.47-42-2.45-42.28l-4.14-.77-7.64,22.74a18.87,18.87,0,0,1-1.41-6.62c-.49-7.34,10.13-33.53,14.27-43l-3.82-1.87L80.1,129.42c-.27-3-.62-7.42-1-13.94-.61-9.48,9.28-27.35,19.1-42.56a8.88,8.88,0,0,0,1.28.15,9.29,9.29,0,0,0,9.51-8.45,3.8,3.8,0,0,0,0-1.48A10.26,10.26,0,0,0,107.53,59c5.31-7.54,9.26-12.69,9.39-12.85l-2.39-3.3-76.27,27,52.21-27L88.84,39,25.46,59.3,94.85,24l.73-.62c.09-.11,8.64-11.42,17.59-16.71,5.54-3.28,25.74-4,38.79,3.63,7.72,4.52,11.55,11.09,11.37,19.55-.35,16.27-10.27,24.74-20.78,33.71C135,70,127.16,76.66,123.3,86.43c-2.14,5.43-.66,8.69,1,10.48,6.14,6.77,25.71,3.92,38.38,1.18a9.45,9.45,0,0,0,4.4,4.16ZM166.59,93.87c0-5.45,8.14-5.41,8.43,0C174.73,99.27,166.59,99.32,166.59,93.87Z"/></g></g></svg>