<svg xmlns="http://www.w3.org/2000/svg" xmlns:xlink="http://www.w3.org/1999/xlink" viewBox="-100 -50 450 250"><defs><style>.cls-1{fill:url(#linear-gradient);}.cls-2{fill:#399;}</style><linearGradient id="linear-gradient" x1="-360" y1="83.51" x2="-134.72" y2="83.51" gradientTransform="translate(360 -4)" gradientUnits="userSpaceOnUse"><stop offset="0" stop-color="#4c9bd8"/><stop offset="0.52" stop-color="#9134ea"/><stop offset="1" stop-color="#d4474f"/></linearGradient></defs><title>ComingSoon</title><g id="Layer_2" data-name="Layer 2"><g id="Layer_4" data-name="Layer 4"><path class="cls-1" d="M79.29,71.49l7.6-21.88a3.23,3.23,0,0,1,3.2-2.48h11.56q1.44,0,1.44,1.64a2.26,2.26,0,0,1-.16.84l-7.6,21.88h8.6l7.6-21.88a3.23,3.23,0,0,1,3.2-2.48H126.3q1.44,0,1.44,1.64a2.24,2.24,0,0,1-.16.84L120,71.49h8.6L136.9,48a13.52,13.52,0,0,0,.92-4.32q0-4.08-4.76-4.08H81.69L70.57,71.49ZM9.92,62.73a1.31,1.31,0,0,1,0-.32q4.88-13.92,4.76-13.48.6-1.8,3.24-1.8H36.85l2.64-7.52h-27Q9.2,39.6,8,43.16L.44,64.69A7.41,7.41,0,0,0,0,67.09a3.81,3.81,0,0,0,1.54,3.26,6.45,6.45,0,0,0,3.94,1.14H28.2L30.89,64h-19Q9.92,64,9.92,62.73Zm51.81,8.76a5.4,5.4,0,0,0,2.52-.6,4.23,4.23,0,0,0,2-2.36L73.53,48a14.06,14.06,0,0,0,.88-4.32q0-4.12-4.76-4.12H46.49a5.36,5.36,0,0,0-2.56.64,4.06,4.06,0,0,0-2,2.36l-6.56,18.8-.68,1.68a12.39,12.39,0,0,0-.92,4.28q0,4.12,4.8,4.12ZM44,61.49l4.16-12a3.15,3.15,0,0,1,3.16-2.4h11.6q1.44,0,1.44,1.68a2.15,2.15,0,0,1-.16.8l-4.2,12a4.75,4.75,0,0,1-.92,1.64,3.08,3.08,0,0,1-2.2.72H45.29q-1.44,0-1.44-1.64A2.24,2.24,0,0,1,44,61.49Zm98.3,10,11.28-32h-8.72l-11.28,32Zm14,0,7.6-22a3.18,3.18,0,0,1,3.2-2.4h11.56q1.44,0,1.44,1.68a2.14,2.14,0,0,1-.16.8l-7.6,21.88h8.6L189.27,48a13.51,13.51,0,0,0,.92-4.32q0-4.12-4.8-4.12H158.71L147.58,71.49Zm43.41-22.63q.72-1.74,3.24-1.74H222.6l2.68-7.52H197.51a4.42,4.42,0,0,0-3,.92,6.41,6.41,0,0,0-1.6,2.64q-4.56,12.76-7.52,21.52a7.34,7.34,0,0,0-.48,2.4,3.84,3.84,0,0,0,1.72,3.4,6.58,6.58,0,0,0,3.76,1h21a4.55,4.55,0,0,0,3-.88,6.19,6.19,0,0,0,1.64-2.69l5.36-15.12h-18.6l-2.68,7.52h9.92a13,13,0,0,1-.8,1.84Q208.59,64,206,64h-9.12q-2,0-2-1.28A58.53,58.53,0,0,1,197.07,56Q199,50.6,199.71,48.86ZM70.59,100.76a6.52,6.52,0,0,0-4-1.14H52.09q-1.8,0-1.8-1.19a1.15,1.15,0,0,1,.08-.44s0-.16,0-.48a1.31,1.31,0,0,1,.08-.59,4,4,0,0,1,1-1.19,3.77,3.77,0,0,1,2.28-.6H72.61l2.64-7.52h-27a4.26,4.26,0,0,0-4.56,3.55q-.08.32-3.12,9.12a7.33,7.33,0,0,0-.44,2.39,3.94,3.94,0,0,0,1.6,3.35,6.28,6.28,0,0,0,3.88,1.12H60.17q2,0,2,1.26a1.37,1.37,0,0,1,0,.33q-.16-.08-.76,1.46Q60.69,112,58.13,112H39.29l-2.68,7.52h27a4.3,4.3,0,0,0,3-1,6,6,0,0,0,1.52-2.57q2.32-6.21,3.52-9.46a7.2,7.2,0,0,0,.48-2.45A3.82,3.82,0,0,0,70.59,100.76Zm42.39-9q0-4.12-4.76-4.12H85.05a5.36,5.36,0,0,0-2.56.64,4.06,4.06,0,0,0-2,2.36l-6.56,18.8-.68,1.68a12.4,12.4,0,0,0-.92,4.28q0,4.12,4.8,4.12H100.3a5.4,5.4,0,0,0,2.52-.6,4.23,4.23,0,0,0,2-2.36l7.24-20.48A14.06,14.06,0,0,0,113,91.73Zm-10.2,5.88-4.2,12a4.75,4.75,0,0,1-.92,1.64,3.08,3.08,0,0,1-2.2.72H83.85q-1.44,0-1.44-1.64a2.24,2.24,0,0,1,.16-.84l4.16-12a3.15,3.15,0,0,1,3.16-2.4h11.6q1.44,0,1.44,1.68A2.14,2.14,0,0,1,102.78,97.61Zm49.33-5.88q0-4.12-4.76-4.12H124.18a5.36,5.36,0,0,0-2.56.64,4.06,4.06,0,0,0-2,2.36l-6.56,18.8-.68,1.68a12.39,12.39,0,0,0-.92,4.28q0,4.12,4.8,4.12h23.16a5.4,5.4,0,0,0,2.52-.6,4.23,4.23,0,0,0,2-2.36l7.24-20.48A14.05,14.05,0,0,0,152.1,91.73Zm-10.2,5.88-4.2,12a4.75,4.75,0,0,1-.92,1.64,3.08,3.08,0,0,1-2.2.72H123q-1.44,0-1.44-1.64a2.24,2.24,0,0,1,.16-.84l4.16-12a3.15,3.15,0,0,1,3.16-2.4h11.6q1.44,0,1.44,1.68A2.15,2.15,0,0,1,141.9,97.61Zm42.57-10H157.79L146.66,119.5h8.72l7.6-22a3.18,3.18,0,0,1,3.2-2.4h11.56q1.44,0,1.44,1.68a2.15,2.15,0,0,1-.16.8l-7.6,21.88H180l8.32-23.44a13.51,13.51,0,0,0,.92-4.32Q189.27,87.61,184.47,87.61Z"/><path class="cls-2" d="M99.08,10.87a7,7,0,0,1-2.07-.8l1.16-2.62a7.39,7.39,0,0,0,1.71.71,6.69,6.69,0,0,0,1.82.27,2.81,2.81,0,0,0,1.07-.15.46.46,0,0,0,.32-.43c0-.22-.14-.39-.42-.5A9.1,9.1,0,0,0,101.29,7a15.55,15.55,0,0,1-2.06-.56,3.51,3.51,0,0,1-1.44-1,2.65,2.65,0,0,1-.61-1.84,3.16,3.16,0,0,1,.56-1.83A3.73,3.73,0,0,1,99.43.47,7,7,0,0,1,102.16,0a9.89,9.89,0,0,1,2.16.24,6.79,6.79,0,0,1,1.87.69L105.1,3.54a6.62,6.62,0,0,0-3-.79q-1.39,0-1.39.67,0,.32.41.48a8.64,8.64,0,0,0,1.36.34,13.89,13.89,0,0,1,2.06.53,3.59,3.59,0,0,1,1.46,1,2.6,2.6,0,0,1,.62,1.83,3.13,3.13,0,0,1-.56,1.82,3.81,3.81,0,0,1-1.69,1.3,6.9,6.9,0,0,1-2.72.48A11.19,11.19,0,0,1,99.08,10.87Z"/><path class="cls-2" d="M111.31,3V4.79h4.45V7.5h-4.45v3.42h-3.6V.24h8.68V3Z"/><path class="cls-2" d="M124.14,10.92l-1.85-2.85-1.8,2.85h-4.1l3.86-5.39L116.53.24h4l1.82,2.69L124.16.24H128L124.32,5.4l3.94,5.52Z"/></g></g></svg>