<svg xmlns="http://www.w3.org/2000/svg" xmlns:xlink="http://www.w3.org/1999/xlink" viewBox="-100 -20 450 250"><defs><style>.cls-1{fill:url(#linear-gradient);}.cls-2{fill:url(#linear-gradient-2);}.cls-3{fill:url(#linear-gradient-3);}.cls-4{fill:url(#linear-gradient-4);}</style><linearGradient id="linear-gradient" x1="32.88" y1="114.93" x2="169.78" y2="114.93" gradientUnits="userSpaceOnUse"><stop offset="0" stop-color="#4c9bd8"/><stop offset="0.52" stop-color="#9134ea"/><stop offset="1" stop-color="#d4474f"/></linearGradient><linearGradient id="linear-gradient-2" x1="54.33" y1="40.44" x2="138.34" y2="40.44" xlink:href="#linear-gradient"/><linearGradient id="linear-gradient-3" x1="54.33" y1="26.94" x2="138.34" y2="26.94" xlink:href="#linear-gradient"/><linearGradient id="linear-gradient-4" x1="0" y1="101.25" x2="203.1" y2="101.25" xlink:href="#linear-gradient"/></defs><title>Harimau</title><g id="Layer_2" data-name="Layer 2"><g id="Layer_1-2" data-name="Layer 1"><polygon class="cls-1" points="139.71 120.19 139.71 159.87 115.71 159.87 104.92 149.08 130.93 136.08 117.36 95.37 156.51 69.27 154.15 65.73 112.3 93.63 125.73 133.92 101.33 146.12 76.93 133.92 90.36 93.63 48.51 65.73 46.15 69.27 85.3 95.37 71.73 136.08 97.74 149.08 86.95 159.87 62.96 159.87 62.96 120.19 34.78 106.1 32.88 109.9 58.71 122.81 58.71 164.13 88.71 164.13 101.33 151.51 113.95 164.13 143.96 164.13 143.96 122.81 169.78 109.9 167.88 106.1 139.71 120.19"/><polygon class="cls-2" points="70.21 36.13 122.45 36.13 135.33 49 138.34 46 124.21 31.87 68.45 31.87 54.33 46 57.34 49 70.21 36.13"/><polygon class="cls-3" points="70.21 22.63 122.45 22.63 135.33 35.5 138.34 32.5 124.21 18.37 68.45 18.37 54.33 32.5 57.34 35.5 70.21 22.63"/><path class="cls-4" d="M203,130a9.45,9.45,0,0,0-7.19-8.27V94.5L182.33,54l13.5-40.5L182.33,0l-27,13.5L141.83,0h-81L47.33,13.5,20.33,0,6.83,13.5,20.33,54,6.83,94.5v28.08a9.2,9.2,0,0,0,2,18.08,9.28,9.28,0,0,0,1.69-.09l16.78,25.17a9.11,9.11,0,0,0-2,5.64,9.31,9.31,0,0,0,8.85,9.2,9,9,0,0,0,8.48-5.08H60.83l13.5,27h54l13.5-27h18.29a9.17,9.17,0,0,0,17.57-2.92,3.8,3.8,0,0,0,0-1.48,10.09,10.09,0,0,0-2.35-5.36l17.27-25.9a8.94,8.94,0,0,0,.9.08,9.29,9.29,0,0,0,9.51-8.45,3.79,3.79,0,0,0,0-1.48Zm-172.7,41.4c0-5.45,8.14-5.41,8.43,0C38.48,176.79,30.33,176.83,30.33,171.38Zm141.55-8.13a9,9,0,0,0-3.34-.64,9.33,9.33,0,0,0-9.19,8.63H139.21L138,173.6l-12.32,24.65H77L64.64,173.6l-1.18-2.35H43.76a2.54,2.54,0,0,0-.07-.6,9.31,9.31,0,0,0-9.15-8.48,9,9,0,0,0-3.89.9l-16.1-24.16a9.84,9.84,0,0,0,3.81-6.71,3.8,3.8,0,0,0,0-1.48,9.44,9.44,0,0,0-7.28-8.29V95.19L24.37,55.34,24.82,54l-.45-1.34-12.67-38,9.47-9.47L45.43,17.3l2.74,1.37,2.17-2.17L62.59,4.25h77.48l12.25,12.25,2.17,2.17,2.74-1.37L181.49,5.17,191,14.65l-12.67,38L177.85,54l.45,1.34,13.28,39.85v26.62a9.16,9.16,0,0,0-3,16.4Zm17.78-32.54c0-5.45,8.14-5.41,8.43,0C197.81,136.12,189.67,136.17,189.67,130.72Z"/></g></g></svg>