<svg xmlns="http://www.w3.org/2000/svg" xmlns:xlink="http://www.w3.org/1999/xlink" viewBox="-100 -20 450 250"><defs><style>.cls-1{fill:url(#linear-gradient);}</style><linearGradient id="linear-gradient" y1="102.74" x2="178.35" y2="102.74" gradientUnits="userSpaceOnUse"><stop offset="0" stop-color="#4c9bd8"/><stop offset="0.52" stop-color="#9134ea"/><stop offset="1" stop-color="#d4474f"/></linearGradient></defs><title>Monyet_1</title><g id="Layer_2" data-name="Layer 2"><g id="Layer_1-2" data-name="Layer 1"><path class="cls-1" d="M171,143.89a40.32,40.32,0,0,0,1.78-9.24l5.55-77.22L165.87,38.87V26.26L151,10.16a22.93,22.93,0,0,0-15.66-7.36L94.94.62,94.87,0l-5.7.31L83.47,0,83.4.62,43,2.81a22.93,22.93,0,0,0-15.66,7.36L12.47,26.26V38.87L0,57.43l5.55,77.22a40.11,40.11,0,0,0,1.78,9.25,9.18,9.18,0,0,0,4.76,16.81,8.92,8.92,0,0,0,4.58-1,40.08,40.08,0,0,0,4.62,4.15l41,31.33a8.87,8.87,0,0,0-.08,1.12,9.31,9.31,0,0,0,8.85,9.2,9,9,0,0,0,8.63-5.37h23.9A9.17,9.17,0,0,0,121,197a3.79,3.79,0,0,0,0-1.48,10.33,10.33,0,0,0-1-3.38l37-28.34a40.33,40.33,0,0,0,4.63-4.16,9,9,0,0,0,3.83,1,9.29,9.29,0,0,0,9.51-8.45,3.79,3.79,0,0,0,0-1.48A9.84,9.84,0,0,0,171,143.89ZM8.23,151.51c0-5.45,8.14-5.41,8.43,0C16.38,156.92,8.23,157,8.23,151.51Zm99.44,44.77c0-5.45,8.14-5.41,8.43,0C115.82,201.68,107.67,201.73,107.67,196.28ZM167,142.37a9.17,9.17,0,0,0-10.37,9.14,9.09,9.09,0,0,0,1.79,5.38,36,36,0,0,1-4,3.56l-37.17,28.43a8.83,8.83,0,0,0-5.42-1.82,9.33,9.33,0,0,0-9.19,8.8H80.59a2.39,2.39,0,0,0-.05-.32A9.15,9.15,0,0,0,63.86,191l-40-30.59a35.86,35.86,0,0,1-4-3.61,10.16,10.16,0,0,0,1.75-4.59,3.8,3.8,0,0,0,0-1.48,9.31,9.31,0,0,0-9.15-8.48,8.86,8.86,0,0,0-1.15.08,35.87,35.87,0,0,1-1.52-8L4.35,58.59,16.73,40.17V27.92L30.49,13.05a18.69,18.69,0,0,1,12.77-6l44-2.38,0-.21,1.92.1,1.92-.1,0,.21,44,2.38a18.69,18.69,0,0,1,12.77,6l13.76,14.87V40.17L174,58.59l-5.44,75.76A36.06,36.06,0,0,1,167,142.37ZM87.91,109.25a4.3,4.3,0,1,0-6.08,0A4.28,4.28,0,0,0,87.91,109.25Zm8.59,0a4.3,4.3,0,1,0-6.08,0A4.3,4.3,0,0,0,96.51,109.25ZM62.17,134.61h54v-4.25h-54ZM129.71,58.7c-.12-7.06-.3-16-.56-27.4l0-1.56-27.53-7.88h-24L49.38,29.72l0,1.58c-.27,11.31-.45,20.22-.57,27.26l-7.25,7.25,7.06,7.06c-.09,11.55.15,12.15.27,12.46,2,5.06,9.44,16.42,16,19.19l2.7,1.14-24.2,21.52.28,1.22c.46,2,11.68,49.95,42,49.95,1.47,0,2.83,0,4.12-.07s2.58.07,4,.07a26.1,26.1,0,0,0,9.15-1.68,12.66,12.66,0,0,0,4.51-2.15c19.46-11.46,27-44.72,27.33-46.13l.27-1.2-23.59-21.54,2.64-1.15c6.38-2.77,13.63-14.14,15.57-19.2.11-.28.34-.9.26-12.57l6.93-6.93ZM125.59,84c-1.89,4.73-8.46,14.56-13.23,16.63l-8.66,3.76,26.6,24.28c-1.52,6-9.15,33-25.18,42.28l-.32.23a8.38,8.38,0,0,1-3.15,1.44l-.17.06a21.58,21.58,0,0,1-7.73,1.44c-1.41,0-2.71,0-3.94-.07h-.13c-1.27,0-2.6.07-4.05.07C61.13,174.11,50,136,48,128.67l27.33-24.3-8.9-3.77c-5.09-2.16-11.69-12-13.6-16.64-.08-.79-.1-3.29-.08-6.87l.53.53L77,65.81,53.33,54l-.21.21c.13-7.31.29-14.85.44-21.24l24.62-6.87H101L124.93,33c.15,6.44.3,14,.44,21.4L125,54,101.39,65.81,125,77.63l.66-.66C125.69,80.63,125.67,83.19,125.59,84Z"/></g></g></svg>