<svg xmlns="http://www.w3.org/2000/svg" xmlns:xlink="http://www.w3.org/1999/xlink" viewBox="-100 -20 450 250"><defs><style>.cls-1{fill:url(#linear-gradient);}</style><linearGradient id="linear-gradient" x1="-300.98" y1="800.79" x2="-165.68" y2="863.79" gradientTransform="translate(380.98 -755.96)" gradientUnits="userSpaceOnUse"><stop offset="0" stop-color="#4c9bd8"/><stop offset="0.52" stop-color="#9134ea"/><stop offset="1" stop-color="#d4474f"/></linearGradient></defs><title>Panda_1</title><g id="Layer_2" data-name="Layer 2"><g id="Layer_1-2" data-name="Layer 1"><path class="cls-1" d="M107.82,182l-.18.12-.18-.12v.23L87.61,195.43h40.08l-19.87-13.24ZM87.61,74.13,47.17,141.52,67.39,155l20.22-20.22ZM30.34,18l-15,24,7.8,28.22,28.35-40.5Zm155.43,0L164.65,29.76,193,70.26,200.8,42Zm19.06,59.08L215.3,40.43,188.84,0,162.68,15.47a9,9,0,0,0-7.88-4.65,9.35,9.35,0,0,0-8.9,6.9L107.82,6.84v-.1l-.18,0-.18,0v.1L70,17.54a9.13,9.13,0,0,0-8.73-6.61,9.32,9.32,0,0,0-8.1,4.88L26.46,0,0,40.43l10.56,37A9.18,9.18,0,0,0,12,95.07L6.74,121.3,27,175.21l47.17,20.22,13.48,13.48,19.87,6.62v.12l.18-.06.18.06v-.12l19.87-6.62,13.48-13.48,47.17-20.22,20.22-53.91-5.36-26.8a9.44,9.44,0,0,0,7.13-8.23,3.8,3.8,0,0,0,0-1.48A9.63,9.63,0,0,0,204.83,77.08ZM159,20c-.29,5.41-8.43,5.45-8.43,0S158.72,14.63,159,20ZM9.47,86c0-5.45,8.14-5.41,8.43,0C17.61,91.44,9.47,91.48,9.47,86Zm189.38,8.39,5.3,26.52L185,172l-45.5,19.5-.75.32-13.35,13.35-17.75,5.92L89.9,205.19,77.14,192.43l-.58-.58-.75-.32L30.3,172,11.15,120.95l5.22-26.12a9.51,9.51,0,0,0,6.46-8.05,3.8,3.8,0,0,0,0-1.48,9.38,9.38,0,0,0-8-8.4L4.62,41.14,27.79,5.73,52.08,20.09s0,0,0,.06a9.31,9.31,0,0,0,8.85,9.2,9.2,9.2,0,0,0,9.33-7.45l37.39-10.68,38.19,10.91a9.18,9.18,0,0,0,18.1-1.35A2.55,2.55,0,0,0,164,20a2.68,2.68,0,0,0,0-.4l23.51-13.9,23.17,35.41L200.62,76.34a9.19,9.19,0,0,0-1.77,18.08ZM97.78,175.21h19.74l17.26-11.51H80.52Zm29.91-40.43L147.91,155l20.22-13.48L127.69,74.13Z"/></g></g></svg>