<svg xmlns="http://www.w3.org/2000/svg" xmlns:xlink="http://www.w3.org/1999/xlink" viewBox="-100 -20 450 250"><defs><style>.cls-1{fill:url(#linear-gradient);}</style><linearGradient id="linear-gradient" y1="108.65" x2="201.88" y2="108.65" gradientUnits="userSpaceOnUse"><stop offset="0" stop-color="#4c9bd8"/><stop offset="0.52" stop-color="#9134ea"/><stop offset="1" stop-color="#d4474f"/></linearGradient></defs><title>Shifu_1</title><g id="Layer_2" data-name="Layer 2"><g id="Layer_1-2" data-name="Layer 1"><path class="cls-1" d="M201.8,70.24a10,10,0,0,0-2.74-5.78V25L161.5,0,133.71,18.53a8.85,8.85,0,0,0-6.56-2.85A9.34,9.34,0,0,0,118,24.05H81.28a9.3,9.3,0,0,0-9.13-8.37,9,9,0,0,0-3.9.91L43.38,0,5.81,25V55.86a9.17,9.17,0,0,0,0,17.06v60.71l16.06,10.71h0L57.31,168h0l19.37,12.92v36.43h4.25V181.87H88.5v35.44h4.25V181.87h19.37v35.44h4.25V181.87h7.56v35.44h4.25V180.88L147.56,168h0L183,144.34h0l16.06-10.71V77.48a10,10,0,0,0,2.73-5.76,3.8,3.8,0,0,0,0-1.48ZM131.37,24.9c-.29,5.41-8.43,5.45-8.43,0S131.08,19.49,131.37,24.9ZM10.06,27.32,43.38,5.11,64.82,19.41a9.09,9.09,0,0,0-1.88,5.49A9.2,9.2,0,0,0,66,31.68l-48.06,30a9.17,9.17,0,0,0-7.87-6.5ZM5,64.4c0-5.45,8.14-5.41,8.43,0C13.14,69.8,5,69.85,5,64.4ZM88.5,167v10.57H80.94v-8.81L98,151.72l2.9,2.9-1.5,1.5Zm23.62,10.57H92.75v-8.81l9.69-9.69,9.69,9.69Zm11.81,0h-7.56V167l-10.93-10.93-1.5-1.5,2.9-2.9,17.1,17.1Zm23.63-14.76-19.37,12.92V167l-18.34-18.34,4.4-4.4V132.49H90.63v11.81l4.4,4.4L76.69,167v8.72L57.31,162.86V145.44l34-22.64h22.34l34,22.64ZM183,139.23,151.81,160V143.17l-36.92-24.61H90L53.06,143.17V160L21.88,139.23V121.82L56.72,98.59,67,108.87,90.63,97.06,67,85.24,56.69,95.55,47,85.83l19.88-9.94,35.59,23.73L138,75.88l19.88,9.94-9.73,9.73L137.88,85.24,114.25,97.06l23.63,11.81,10.28-10.28L183,121.82Zm11.81-7.87-7.56,5V119.54L153,96.72l12.06-12.06L137.72,71,102.44,94.5,67.15,71,39.79,84.66,51.85,96.72,17.63,119.54V136.4l-7.56-5V73.56a9.2,9.2,0,0,0,8-6.89L70.43,33.93a8.89,8.89,0,0,0,1.36.17,9.05,9.05,0,0,0,8.8-5.79h38a9.33,9.33,0,0,0,8.17,5.79,8.87,8.87,0,0,0,5.44-1.55l53,33.11A9.08,9.08,0,0,0,183.44,71a9.31,9.31,0,0,0,8.85,9.2,9.14,9.14,0,0,0,2.52-.25Zm0-69.33a9.11,9.11,0,0,0-2.16-.26,9,9,0,0,0-4.07,1L135.12,29.33a10.27,10.27,0,0,0,1.18-3.69,3.8,3.8,0,0,0,0-1.48,10.48,10.48,0,0,0-.43-2L161.5,5.11l33.31,22.21Z"/></g></g></svg>