<svg xmlns="http://www.w3.org/2000/svg" xmlns:xlink="http://www.w3.org/1999/xlink" viewBox="-100 -20 450 250"><defs><style>.cls-1{fill:url(#linear-gradient);}</style><linearGradient id="linear-gradient" y1="98.6" x2="221.47" y2="98.6" gradientUnits="userSpaceOnUse"><stop offset="0" stop-color="#4c9bd8"/><stop offset="0.52" stop-color="#9134ea"/><stop offset="1" stop-color="#d4474f"/></linearGradient></defs><title>Ular_1</title><g id="Layer_2" data-name="Layer 2"><g id="Layer_1-2" data-name="Layer 1"><path class="cls-1" d="M128.4,178.78a9.1,9.1,0,0,0-5.54,1.91l-10-8.22V155.23h16.75l91.85-91.85L189.12,14.85a10.19,10.19,0,0,0,1.64-4.44,2.55,2.55,0,0,0,.07-.74,2.55,2.55,0,0,0-.07-.74,9.18,9.18,0,0,0-17.95-2h-125A9.17,9.17,0,0,0,39,0a9.33,9.33,0,0,0-9.22,9.22,9.14,9.14,0,0,0,2.34,6.05L0,63.38l91.23,91.23.62.62h16.75v17.25L98,181.17A8.83,8.83,0,0,0,92,178.78a9.21,9.21,0,1,0,9.14,10,3.8,3.8,0,0,0,0-1.48,10.41,10.41,0,0,0-.66-2.57l10.3-8.46,9.42,7.74a9,9,0,0,0-1,4,9.19,9.19,0,0,0,18.36.74,3.79,3.79,0,0,0,0-1.48A9.31,9.31,0,0,0,128.4,178.78ZM43.17,9.22c-.29,5.41-8.43,5.45-8.43,0S42.88,3.81,43.17,9.22ZM93.62,151,5.47,62.83,26.72,31l8.87,5.91C31.36,42.26,21.46,58.19,37.23,74c6.51,6.51,15.07,8.67,23.54,8.67,16.09,0,31.91-7.77,32.91-8.27L97,72.72,53,43.4l0,0L29.08,27.42l6.45-9.68a9,9,0,0,0,3.05.68,9.18,9.18,0,0,0,9.27-7.18H172.55a9.33,9.33,0,0,0,8.7,7.63,8.9,8.9,0,0,0,4.7-1.1l6.44,9.65L168.47,43.36l0,0-44,29.32,3.28,1.64c1,.5,16.81,8.27,32.91,8.27,8.48,0,17-2.16,23.54-8.67,15.77-15.77,5.87-31.71,1.64-37.09L194.75,31,216,62.83,127.85,151h-15v-18.4c5.92,1.2,6.19,7.34,6.19,8.1v2.13h12.57v-4.25h-8.5c-.74-4.46-3.9-10.44-12.39-10.44s-11.64,6-12.39,10.44h-8.5v4.25h12.57v-2.13c0-.77.21-6.91,6.19-8.1V151ZM39.09,39.25,88.34,72.09c-9.2,3.8-34.53,12.45-48.1-1.13C26.42,57.14,35.61,43.46,39.09,39.25Zm143.29,0c3.48,4.21,12.67,17.89-1.15,31.7-13.58,13.57-38.91,4.93-48.1,1.13ZM124.18,188c0-5.45,8.14-5.41,8.43,0C132.33,193.41,124.18,193.45,124.18,188Z"/></g></g></svg>